# ProBuilder 5.0.7
# https://unity3d.com/unity/features/worldbuilding/probuilder
# 05/02/2025 15:05:52

mtllib ./MinUVFixed.mtl
o MinUVFixed

g Model
v 1.44043 4.265137 6.756836
v 1.612305 4.368652 6.695801
v 1.579102 4.331055 6.899414
v 1.941406 -1.280273 9.138672
v 1.978027 -1.439453 9.022461
v 1.802734 -1.346191 8.996094
v 2.785645 -0.2182617 2.919922
v 2.96582 -0.3056641 2.916992
v 2.95752 -0.1142578 2.858887
v 7.100586 1.852539 7.116699
v 7.128906 1.67041 7.195313
v 7.067383 1.814453 7.320313
v 3.60791 -1.232422 5.866699
v 4.052734 -1.370605 5.625977
v 4.398926 0.07519531 6.315918
v 3.258301 -2.64502 4.925781
v 2.630859 -2.165527 5.461914
v 1.894043 -3.613281 4.125
v 1.24707 -2.729492 5.055176
v 0.253418 -3.872559 3.519531
v 0.04589844 -2.646484 4.828613
v -1.272461 -3.312988 3.161621
v -1.131348 -1.816406 4.770996
v -2.480957 -2.37207 3.11084
v -1.914551 -0.8657227 4.820313
v -3.087402 -1.45459 3.178223
v -3.652344 -0.5141602 3.280762
v -3.966797 0.9609375 3.552246
v -2.431152 0.2456055 4.959473
v -3.775879 2.519531 4.103516
v -2.658691 1.644531 5.220703
v -2.780273 3.802246 4.802734
v -2.192871 2.727539 5.554199
v -1.253418 4.512695 5.580078
v -1.052246 3.677246 5.996094
v 0.2919922 4.595215 6.171387
v 0.2426758 4.106445 6.354492
v 1.795898 4.20459 6.693359
v 4.436523 -1.572266 5.960938
v 3.690918 -3.3125 5.425781
v 2.123047 -4.715332 4.797363
v 0.04638672 -5.421875 4.217773
v -2.056152 -5.177734 3.842285
v -3.769043 -4.09375 3.731445
v -4.967773 -2.696289 3.794434
v -5.705078 -1.022461 4.012207
v -5.923828 0.9575195 4.40332
v -5.198242 2.897949 4.978516
v -3.614258 4.38623 5.628906
v -1.623047 5.117188 6.196289
v 0.3056641 4.980957 6.560059
v 3.939941 -1.492188 6.178223
v 3.049316 -2.870605 5.950684
v 1.569336 -3.963867 5.717285
v -0.1513672 -4.30957 5.503906
v -1.741211 -3.818359 5.457031
v -2.953613 -2.881836 5.426758
v -3.563965 -1.96875 5.51416
v -4.125 -1.023926 5.59668
v -4.435059 0.4555664 5.847656
v -4.180664 2.083008 6.088379
v -3.105469 3.452148 6.395508
v -1.462402 4.287109 6.60498
v 0.1791992 4.473633 6.723633

vt 0.4707031 0.6611328
vt 0.4707031 0.6992188
vt 0.4882813 0.6611328
vt 0.6960456 0.3299345
vt 0.6991928 0.316255
vt 0.6841285 0.3242697
vt 0.2134582 0.491888
vt 0.1968747 0.4838434
vt 0.1976387 0.5014606
vt 0.1650391 0.1210938
vt 0.140625 0.07617188
vt 0.140625 0.1210938
vt 0.1162109 0.3857422
vt 0.4873047 0.8671875
vt 0.7919922 0.3769531
vt 0.4428413 0.01294255
vt 0.06150967 0.4048356
vt 0.5666562 0.3660956
vt 0.5140159 0.5594229
vt 0.9566691 0.4024023
vt 0.5989044 0.03473467
vt 0.6649101 0.8121576
vt 1.136558 0.5958876
vt 0.4484298 0.03473467
vt 0.2559941 0.5169577
vt 0.2682469 0.5226225
vt 0.4606826 0.04039949
vt 0.4013672 0.6611328
vt 0.4013672 0.1210938
vt 0.3808594 0.1210938
vt 0.3808594 0.6611328
vt 0.3214536 0.9140718
vt 0.3372732 0.9045441
vt 0.06874532 0.3173337
vt 0.4606383 0.1363081
vt 0.4552902 0.1186909
vt 0.06150967 0.3005708
vt 1.141845 0.5835089
vt 0.02298141 0.08840364
vt 0.4946296 0.05223268
vt 0.4917762 0.03473467
vt 0.02012801 0.07090563
vt 0.1377761 0.3985437
vt 0.096834 0.3858251
vt 0.0649702 0.5188981
vt 0.1699545 0.2685272
vt 0.2277048 0.3126597
vt 0.2955222 0.1794074
vt 0.3550702 0.2607523
vt 0.6002728 0.2150913
vt 0.6917295 0.07374898
vt 0.5407248 0.1294769
vt 0.7108299 0.1942382
vt 0.8321726 0.04080656
vt 0.8191844 0.1889351
vt 0.5739818 0.3447932
vt 0.6982012 0.2936497
vt 0.58697 0.2070467
vt 0.6460686 0.4322951
vt 0.7540186 0.3780951
vt 0.4312463 0.01294255
vt 0.2801071 0.06714252
vt 0.4218085 0.09950069
vt 0.834959 0.6004227
vt 0.8060164 0.4646532
vt 0.6936171 0.5345828
vt 0.04257751 0.03473467
vt 0.1161358 0.2301502
vt 0.1635106 0.09620851
vt 0.02012801 0.1549549
vt 0.71456 0.6633413
vt 0.7257506 0.8619392
vt 0.8173867 0.7438768
vt 0.6716855 0.7630221
vt 0.5852172 0.9273297
vt 0.5667012 0.8504341
vt 0.4429761 0.9349248
vt 0.4475152 0.889938
vt 0.3045555 0.8989713
vt 0.06150967 0.3672641
vt 0.130136 0.2070916
vt 0.2744444 0.07797351
vt 0.4655819 0.01294255
vt 0.4465265 0.1555432
vt 0.6591017 0.0354135
vt 0.8167575 0.1351846
vt 0.9270899 0.2638083
vt 0.9949521 0.4178687
vt 1.015086 0.6001081
vt 0.9483024 0.7787068
vt 0.8025109 0.9156897
vt 0.9709532 0.1918563
vt 0.8644409 0.3201201
vt 1.047714 0.267898
vt 0.8304198 0.2634038
vt 0.6869208 0.3536018
vt 0.6881791 0.317828
vt 0.4417177 0.9704289
vt 0.9104693 0.3048415
vt 0.8677943 0.3117232
vt 0.9072382 0.4464201
vt 0.7912562 0.1932659
vt 0.8463938 0.1552905
vt 0.6640708 0.09931368
vt 0.7116554 0.03473467
vt 0.5264785 0.1963291
vt 0.3310215 0.2570476
vt 0.478894 0.2753848
vt 0.348016 0.1465206
vt 0.1943944 0.2530193
vt 0.1673291 0.114252
vt 0.09020352 0.2504176
vt 0.02012801 0.1047267
vt 0.2053044 0.08815187
vt 0.2229283 0.2707691
vt 0.2753804 0.1923007
vt 0.1022885 0.2082462
vt 0.1747143 0.3519644
vt 0.03892684 0.3520903
vt 0.02012801 0.06255525
vt 0.1778615 0.1895732
vt 0.1562932 0.06242937
vt 0.05373931 0.2327098
vt 0.02012801 0.5222449
vt 0.1699307 0.6189665
vt 0.1480687 0.4791083
vt 0.08248258 0.6890001
vt 0.2623303 0.7366266
vt 0.2186062 0.8168992
vt 0.4035313 0.808381
vt 0.3897259 0.8797159
vt 0.544606 0.8244104
vt 0.555474 0.8680086
vt 0.6835411 0.8012895
vt 0.8392603 0.3340468
vt 0.7552955 0.2538585
vt 0.6363761 0.2053928
vt 0.5331504 0.2125263
vt 0.5161979 0.06960481
vt 0.4319808 0.2838606
vt 0.3795712 0.1118183
vt 0.3646748 0.36556
vt 0.3202794 0.4610648
vt 0.3007252 0.5812849
vt 0.3407567 0.6743554
vt 0.4387786 0.7559709
vt 0.550061 0.7928552
vt 0.3594296 0.3618674
vt 0.4983642 0.3592657
vt 0.3648846 0.3301443

vn -0.4934341 0.866145 0.07947158
vn -0.4200889 -0.5961528 0.6841982
vn -0.1575167 -0.2931037 -0.9430158
vn 0.9517021 0.2338537 0.198936
vn -0.9737419 -0.1357891 -0.1827238
vn 0.3559858 0.6670095 -0.6545016
vn 0.4939939 -0.8656993 -0.08083846
vn 0.1009689 0.3743608 0.9217697
vn -0.7472553 0.2041223 0.632411
vn -0.4286044 -0.8733333 -0.2314865
vn -0.4295634 -0.8728545 -0.2315176
vn -0.4276453 -0.8738123 -0.2314554
vn -0.5289322 0.4546155 -0.7166277
vn -0.5293613 0.4543403 -0.7164856
vn 0.7438039 -0.164222 -0.6479095
vn 0.5188892 -0.4229866 0.7428569
vn 0.5188947 -0.4230061 0.742842
vn 0.3910674 0.8913085 0.2294218
vn 0.3912632 0.8914812 0.2284172
vn 0.3908715 0.8911359 0.2304265
vn -0.2697057 0.5247722 -0.8073865
vn -0.2732263 0.5248349 -0.8061611
vn -0.303428 0.4685797 -0.8296773
vn -0.1563829 0.6413208 -0.7511671
vn -0.1522494 0.6409525 -0.7523297
vn 0.02065787 0.7322594 -0.6807125
vn 0.03593438 0.7264087 -0.6863229
vn 0.2732533 0.7296276 -0.6268781
vn 0.3072973 0.7046813 -0.6395252
vn 0.4683851 0.6380519 -0.6111507
vn 0.5177919 0.5829296 -0.6261666
vn 0.5554501 0.5507785 -0.6229913
vn 0.6484786 0.4270633 -0.6301528
vn 0.637218 0.4584177 -0.6195211
vn 0.6579419 0.3631102 -0.659745
vn 0.7031097 0.2488261 -0.6661249
vn 0.7317907 0.302217 -0.6108578
vn 0.7105375 0.04560059 -0.7021802
vn 0.7434268 0.06885167 -0.6652639
vn 0.615182 -0.186218 -0.766077
vn 0.6303896 -0.1834731 -0.7542854
vn 0.4451382 -0.3105965 -0.8398702
vn 0.4471006 -0.3134914 -0.8377495
vn 0.2881437 -0.3585126 -0.8879425
vn 0.2897987 -0.3612658 -0.8862865
vn 0.2204861 -0.3616132 -0.9058818
vn 0.6923379 0.05796366 -0.7192416
vn 0.6747941 0.06284467 -0.7353255
vn 0.6965491 0.1662896 -0.6979737
vn 0.6163838 -0.1509978 -0.7728329
vn 0.6569178 -0.1698654 -0.734578
vn 0.4864718 -0.3539461 -0.7987912
vn 0.5092455 -0.3676877 -0.7781225
vn 0.2448371 -0.4260995 -0.8709156
vn 0.236627 -0.4136542 -0.8791462
vn -0.01420045 -0.3475965 -0.9375367
vn -0.02718552 -0.3210611 -0.9466682
vn -0.1886479 -0.2155402 -0.9580994
vn -0.1964404 -0.1844981 -0.9630014
vn -0.2766823 -0.07044043 -0.9583763
vn -0.2815165 -0.07229048 -0.9568294
vn -0.3385448 0.04690925 -0.9397803
vn -0.3499228 0.01317988 -0.9366859
vn -0.3782203 0.2530099 -0.8904691
vn -0.4008551 0.2282324 -0.8872571
vn -0.3435344 0.5003799 -0.7947353
vn -0.3588395 0.490916 -0.7938738
vn -0.1935596 0.6977348 -0.6897107
vn -0.1655566 0.6887904 -0.7058036
vn 0.0670878 0.7523898 -0.655293
vn 0.1100054 0.7232558 -0.6817624
vn 0.2992105 0.686826 -0.6623769
vn 0.3121936 0.6687877 -0.6747282
vn 0.3946427 0.6451892 -0.6542079
vn 0.3640994 -0.2889903 0.8853904
vn 0.3484515 -0.2725986 0.8968119
vn 0.3681574 -0.1878058 0.9105982
vn 0.3171465 -0.4668523 0.8255102
vn 0.3375821 -0.5095335 0.7914631
vn 0.1794874 -0.6804129 0.7105086
vn 0.184113 -0.7034475 0.6864867
vn -0.09106546 -0.760711 0.6426709
vn -0.07827086 -0.7533123 0.6529887
vn -0.3627253 -0.6860883 0.630645
vn -0.3358645 -0.6812114 0.6504968
vn -0.5420902 -0.5481455 0.636926
vn -0.5119187 -0.5569794 0.653998
vn -0.5963785 -0.4542162 0.661831
vn -0.5938866 -0.4516177 0.665838
vn -0.6602154 -0.3291005 0.6751359
vn -0.6804795 -0.3055231 0.6660355
vn -0.7033429 -0.1170034 0.7011555
vn -0.7161232 -0.09037984 0.6920975
vn -0.653428 0.1636957 0.7390775
vn -0.6568692 0.1790289 0.7324421
vn -0.4721681 0.3900876 0.7904992
vn -0.4785635 0.3588929 0.8013569
vn -0.2382943 0.4211999 0.8751037
vn -0.254931 0.3680182 0.8941883
vn -0.03313825 0.3374859 0.9407471
vn -0.04281349 0.3162392 0.9477129
vn 0.06632736 0.2911781 0.9543668
vn -0.5942982 0.1752646 0.7849152
vn -0.595248 0.1786773 0.7834247
vn -0.6294029 0.1168202 0.7682481
vn -0.4776068 0.2952018 0.8274948
vn -0.4768717 0.2913313 0.8292885
vn -0.2679743 0.4005679 0.876205
vn -0.2809781 0.3864115 0.8784859
vn 0.018921 0.3881005 0.9214228
vn -0.02864506 0.3631376 0.9312951
vn 0.2294736 0.2741403 0.9339106
vn 0.1504993 0.2629535 0.9529981
vn 0.2924931 0.1372005 0.946374
vn 0.2304013 0.1694884 0.9582217
vn 0.3188597 0.114993 0.9408002
vn 0.3631195 0.0001339338 0.9317426
vn 0.3743634 -0.04795594 0.9260412
vn 0.4084206 -0.1123142 0.9058577
vn 0.3921089 -0.2852073 0.8745899
vn 0.4060311 -0.3223571 0.8551168
vn 0.2912933 -0.5302763 0.796213
vn 0.2931562 -0.5441589 0.7860983
vn 0.1240946 -0.6577041 0.7429844
vn 0.1234327 -0.6609221 0.740234
vn -0.03780236 -0.7091242 0.7040695
vn -0.03847064 -0.7117549 0.7013737
vn -0.1058676 -0.7140385 0.6920558

usemtl Yellow
f 3/3/1 2/2/1 1/1/1
f 6/6/2 5/5/2 4/4/2
f 9/9/3 8/8/3 7/7/3
f 12/12/4 11/11/4 10/10/4
f 1/15/5 7/14/5 6/13/5
f 2/18/6 10/17/6 9/16/6
f 8/21/7 11/20/7 5/19/7
f 4/4/8 12/23/8 3/22/8
f 3/26/9 1/25/9 6/24/9
f 6/24/9 4/27/9 3/26/9
f 5/30/10 6/29/11 7/28/10
f 7/28/10 8/31/12 5/30/10
f 1/33/13 2/32/13 9/9/13
f 9/9/13 7/7/14 1/33/13
f 8/36/15 9/35/15 10/34/15
f 10/34/15 11/37/15 8/36/15
f 4/4/16 5/5/16 11/38/16
f 11/38/16 12/23/17 4/4/16
f 2/41/18 3/40/19 12/39/18
f 12/39/18 10/42/20 2/41/18

usemtl Green
f 15/45/23 14/44/22 13/43/21
f 22/58/30 24/57/32 23/56/31
f 27/63/35 25/62/33 26/61/34
f 36/77/44 38/79/46 37/78/45
f 15/45/49 39/80/48 14/44/47
f 51/98/72 38/79/74 36/77/73
f 15/101/77 52/100/76 39/99/75
f 64/132/100 38/134/102 51/133/101
f 15/101/105 13/135/104 52/100/103
f 25/142/114 58/115/116 57/116/115
f 29/143/118 60/126/119 59/118/117
f 37/150/126 38/149/128 64/148/127
f 13/43/21 14/44/22 16/46/24
f 16/46/24 17/47/25 13/43/21
f 17/47/25 16/46/24 18/48/26
f 18/48/26 19/49/27 17/47/25
f 19/50/27 18/52/26 20/51/28
f 20/51/28 21/53/29 19/50/27
f 21/53/29 20/51/28 22/54/30
f 22/54/30 23/55/31 21/53/29
f 26/60/34 25/59/33 23/56/31
f 23/56/31 24/57/32 26/60/34
f 25/59/33 27/65/35 28/64/36
f 28/64/36 29/66/37 25/59/33
f 29/67/37 28/69/36 30/68/38
f 30/68/38 31/70/39 29/67/37
f 31/71/39 30/73/38 32/72/40
f 32/72/40 33/74/41 31/71/39
f 33/74/41 32/72/40 34/75/42
f 34/75/42 35/76/43 33/74/41
f 35/76/43 34/75/42 36/77/44
f 36/77/44 37/78/45 35/76/43
f 14/44/47 39/80/48 40/81/50
f 40/81/50 16/46/51 14/44/47
f 16/46/51 40/81/50 41/82/52
f 41/82/52 18/48/53 16/46/51
f 18/48/53 41/82/52 42/83/54
f 42/83/54 20/84/55 18/48/53
f 20/84/55 42/83/54 43/85/56
f 43/85/56 22/58/57 20/84/55
f 22/58/57 43/85/56 44/86/58
f 44/86/58 24/57/59 22/58/57
f 24/57/59 44/86/58 45/87/60
f 45/87/60 26/60/61 24/57/59
f 26/60/61 45/87/60 46/88/62
f 46/88/62 27/65/63 26/60/61
f 27/65/63 46/88/62 47/89/64
f 47/89/64 28/64/65 27/65/63
f 28/64/65 47/89/64 48/90/66
f 48/90/66 30/73/67 28/64/65
f 30/73/67 48/90/66 49/91/68
f 49/91/68 32/72/69 30/73/67
f 32/92/69 49/94/68 50/93/70
f 50/93/70 34/95/71 32/92/69
f 34/95/71 50/93/70 51/96/72
f 51/96/72 36/97/73 34/95/71
f 39/99/75 52/100/76 53/102/78
f 53/102/78 40/103/79 39/99/75
f 40/103/79 53/102/78 54/104/80
f 54/104/80 41/105/81 40/103/79
f 41/106/81 54/108/80 55/107/82
f 55/107/82 42/109/83 41/106/81
f 42/109/83 55/107/82 56/110/84
f 56/110/84 43/111/85 42/109/83
f 43/111/85 56/110/84 57/112/86
f 57/112/86 44/113/87 43/111/85
f 44/114/87 57/116/86 58/115/88
f 58/115/88 45/117/89 44/114/87
f 45/117/89 58/115/88 59/118/90
f 59/118/90 46/119/91 45/117/89
f 46/120/91 59/122/90 60/121/92
f 60/121/92 47/123/93 46/120/91
f 47/124/93 60/126/92 61/125/94
f 61/125/94 48/127/95 47/124/93
f 48/127/95 61/125/94 62/128/96
f 62/128/96 49/129/97 48/127/95
f 49/129/97 62/128/96 63/130/98
f 63/130/98 50/131/99 49/129/97
f 50/131/99 63/130/98 64/132/100
f 64/132/100 51/133/101 50/131/99
f 52/100/103 13/135/104 17/136/106
f 17/136/106 53/102/107 52/100/103
f 53/102/107 17/136/106 19/137/108
f 19/137/108 54/104/109 53/102/107
f 54/104/109 19/137/108 21/138/110
f 21/138/110 55/139/111 54/104/109
f 55/139/111 21/138/110 23/140/112
f 23/140/112 56/141/113 55/139/111
f 56/141/113 23/140/112 25/142/114
f 25/142/114 57/116/115 56/141/113
f 59/118/117 58/115/116 25/142/114
f 25/142/114 29/143/118 59/118/117
f 60/126/119 29/143/118 31/144/120
f 31/144/120 61/125/121 60/126/119
f 61/125/121 31/144/120 33/145/122
f 33/145/122 62/128/123 61/125/121
f 62/128/123 33/145/122 35/146/124
f 35/146/124 63/130/125 62/128/123
f 63/130/125 35/146/124 37/147/126
f 37/147/126 64/132/127 63/130/125

